<svg xmlns="http://www.w3.org/2000/svg" viewBox="0 0 615 121" role="img" aria-label="DATAVE"><g transform="translate(10 10)"><path d="M0 0H79Q84 0 88 4L116 32Q120 36 116 40L103 53L79 29Q77 27 73 27H29Q25 27 22 24Z" fill="#123047"/><path d="M0 37H69L96 64H29Q25 64 22 61Z" fill="#187C78"/><path d="M0 101L25 76Q28 74 32 74H91L128 46V72Q128 77 124 81L108 97Q104 101 99 101Z" fill="#123047"/><path d="M76 101L128 49V72Q128 77 124 81L108 97Q104 101 99 101Z" fill="#187C78"/></g><g transform="translate(160 25.5)"><path transform="translate(0 0)" d="M0 0H26C50 0 65 14 65 35S50 70 26 70H0ZM15 14V56H25C41 56 50 48 50 35S41 14 25 14Z" fill="#123047" fill-rule="evenodd"/><path transform="translate(72 0)" d="M0 70L29 0H44L73 70H57L51 54H22L16 70ZM27 41H46L36.5 17Z" fill="#123047" fill-rule="evenodd"/><path transform="translate(152 0)" d="M0 0H64V14H40V70H24V14H0Z" fill="#123047" fill-rule="evenodd"/><path transform="translate(223 0)" d="M0 70L29 0H44L73 70H57L51 54H22L16 70ZM27 41H46L36.5 17Z" fill="#123047" fill-rule="evenodd"/><path transform="translate(303 0)" d="M0 0H17L37 51L57 0H74L45 70H29Z" fill="#123047" fill-rule="evenodd"/><path transform="translate(384 0)" d="M0 0H57V14H15V28H52V42H15V56H57V70H0Z" fill="#123047" fill-rule="evenodd"/></g></svg>